
<svg version="1.1" id="Capa_1" xmlns="http://www.w3.org/2000/svg" xmlns:xlink="http://www.w3.org/1999/xlink" x="0px" y="0px"
	 viewBox="0 0 35.6 48.7" fill="#483D8B" style="enable-background:new 0 0 35.6 48.7;" xml:space="preserve">
	<g>
		<path d="M17.8,0.4C8.1,0.4,0.3,8.3,0.3,18c0,9.5,16.2,29.3,16.9,30.1c0.2,0.2,0.4,0.3,0.6,0.3s0.5-0.1,0.6-0.3
			c0.7-0.8,16.9-20.7,16.9-30.1C35.3,8.3,27.5,0.4,17.8,0.4z M17.8,46.3C14.8,42.5,1.9,25.9,1.9,18C1.9,9.2,9,2,17.8,2
			c8.8,0,15.9,7.2,15.9,16C33.7,25.9,20.8,42.6,17.8,46.3z"/>
		<path d="M28.6,15L18.3,7c-0.3-0.2-0.7-0.2-1,0L7,15c-0.3,0.3-0.4,0.8-0.1,1.1c0.2,0.2,0.4,0.3,0.6,0.3h2.4v8.8
			c0,0.4,0.4,0.8,0.8,0.8H25c0.4,0,0.8-0.4,0.8-0.8v-8.8h2.4c0.4,0,0.8-0.4,0.8-0.8C29,15.4,28.8,15.1,28.6,15z M19.4,24.4h-3.2
			v-4.8h3.2V24.4z M25,14.8c-0.4,0-0.8,0.4-0.8,0.8v8.8H21v-5.6c0-0.4-0.4-0.8-0.8-0.8h-4.8c-0.4,0-0.8,0.4-0.8,0.8v5.6h-3.2v-8.8
			c0-0.4-0.4-0.8-0.8-0.8H9.8l8-6.2l8,6.2H25z"/>
	</g>
</svg>
